HIERARCHY
ROOT Junyuan_V1:Solving:Hips
{
	OFFSET 0.000000 0.000000 0.000000
	CHANNELS 6 Xposition Yposition Zposition Xrotation Yrotation Zrotation
	JOINT Junyuan_V1:Solving:Spine
	{
		OFFSET 0.000000 -8.943189 2.778120
		CHANNELS 6 Xposition Yposition Zposition Xrotation Yrotation Zrotation
		JOINT Junyuan_V1:Solving:Spine1
		{
			OFFSET 0.000000 -9.944814 1.753542
			CHANNELS 6 Xposition Yposition Zposition Xrotation Yrotation Zrotation
			JOINT Junyuan_V1:Solving:Spine2
			{
				OFFSET 0.000000 -10.059801 0.880121
				CHANNELS 6 Xposition Yposition Zposition Xrotation Yrotation Zrotation
				JOINT Junyuan_V1:Solving:Spine3
				{
					OFFSET 0.000000 -10.098228 0.000000
					CHANNELS 6 Xposition Yposition Zposition Xrotation Yrotation Zrotation
					JOINT Junyuan_V1:Solving:Neck
					{
						OFFSET 0.000000 -12.983437 -1.298342
						CHANNELS 6 Xposition Yposition Zposition Xrotation Yrotation Zrotation
						JOINT Junyuan_V1:Solving:Neck1
						{
							OFFSET 0.000000 -8.085114 -0.707354
							CHANNELS 6 Xposition Yposition Zposition Xrotation Yrotation Zrotation
							JOINT Junyuan_V1:Solving:Head
							{
								OFFSET 0.000000 -7.992695 -1.409326
								CHANNELS 6 Xposition Yposition Zposition Xrotation Yrotation Zrotation
								JOINT Junyuan_V1:Solving:HeadEnd
								{
									OFFSET 0.000000 -9.728081 0.000002
									CHANNELS 6 Xposition Yposition Zposition Xrotation Yrotation Zrotation
									End Site
									{
										OFFSET 0.000000 -9.728081 0.000002
									}
								}
							}
						}
					}
					JOINT Junyuan_V1:Solving:RightShoulder
					{
						OFFSET 0.000000 -9.273884 -6.154356
						CHANNELS 6 Xposition Yposition Zposition Xrotation Yrotation Zrotation
						JOINT Junyuan_V1:Solving:RightArm
						{
							OFFSET -19.110832 -0.000008 0.000000
							CHANNELS 6 Xposition Yposition Zposition Xrotation Yrotation Zrotation
							JOINT Junyuan_V1:Solving:RightForeArm
							{
								OFFSET -27.916382 -0.000008 0.000000
								CHANNELS 6 Xposition Yposition Zposition Xrotation Yrotation Zrotation
								JOINT Junyuan_V1:Solving:RightHand
								{
									OFFSET -21.757072 -0.000008 0.000000
									CHANNELS 6 Xposition Yposition Zposition Xrotation Yrotation Zrotation
									JOINT Junyuan_V1:Solving:RightHandThumb1
									{
										OFFSET -3.656471 2.766285 -2.718907
										CHANNELS 6 Xposition Yposition Zposition Xrotation Yrotation Zrotation
										End Site
										{
											OFFSET -5.307442 0.000000 -5.356520
										}
									}
									JOINT Junyuan_V1:Solving:RightHandMiddle1
									{
										OFFSET -9.750572 -0.000004 0.062504
										CHANNELS 6 Xposition Yposition Zposition Xrotation Yrotation Zrotation
										End Site
										{
											OFFSET -7.540642 -0.000004 0.000000
										}
									}
								}
							}
						}
					}
					JOINT Junyuan_V1:Solving:LeftShoulder
					{
						OFFSET 0.000000 -9.273884 -6.154356
						CHANNELS 6 Xposition Yposition Zposition Xrotation Yrotation Zrotation
						JOINT Junyuan_V1:Solving:LeftArm
						{
							OFFSET 19.110832 -0.000008 0.000000
							CHANNELS 6 Xposition Yposition Zposition Xrotation Yrotation Zrotation
							JOINT Junyuan_V1:Solving:LeftForeArm
							{
								OFFSET 27.916382 -0.000008 0.000000
								CHANNELS 6 Xposition Yposition Zposition Xrotation Yrotation Zrotation
								JOINT Junyuan_V1:Solving:LeftHand
								{
									OFFSET 21.757072 -0.000008 0.000000
									CHANNELS 6 Xposition Yposition Zposition Xrotation Yrotation Zrotation
									JOINT Junyuan_V1:Solving:LeftHandThumb1
									{
										OFFSET 3.656471 2.766285 -2.718907
										CHANNELS 6 Xposition Yposition Zposition Xrotation Yrotation Zrotation
										End Site
										{
											OFFSET 5.307442 0.000000 -5.356520
										}
									}
									JOINT Junyuan_V1:Solving:LeftHandMiddle1
									{
										OFFSET 9.750572 -0.000004 0.062504
										CHANNELS 6 Xposition Yposition Zposition Xrotation Yrotation Zrotation
										End Site
										{
											OFFSET 7.540642 -0.000004 0.000000
										}
									}
								}
							}
						}
					}
				}
			}
		}
	}
	JOINT Junyuan_V1:Solving:RightUpLeg
	{
		OFFSET -8.521003 0.000000 0.000000
		CHANNELS 6 Xposition Yposition Zposition Xrotation Yrotation Zrotation
		JOINT Junyuan_V1:Solving:RightLeg
		{
			OFFSET 0.000000 41.622898 -0.000006
			CHANNELS 6 Xposition Yposition Zposition Xrotation Yrotation Zrotation
			JOINT Junyuan_V1:Solving:RightFoot
			{
				OFFSET 0.000000 37.258389 -0.000006
				CHANNELS 6 Xposition Yposition Zposition Xrotation Yrotation Zrotation
				JOINT Junyuan_V1:Solving:RightForeFoot
				{
					OFFSET 0.000000 3.234154 -0.000000
					CHANNELS 6 Xposition Yposition Zposition Xrotation Yrotation Zrotation
					JOINT Junyuan_V1:Solving:RightToeBase
					{
						OFFSET 0.000000 0.000000 -12.665958
						CHANNELS 6 Xposition Yposition Zposition Xrotation Yrotation Zrotation
						JOINT Junyuan_V1:Solving:RightToeBaseEnd
						{
							OFFSET 0.000000 0.000000 -2.833065
							CHANNELS 6 Xposition Yposition Zposition Xrotation Yrotation Zrotation
							End Site
							{
								OFFSET 0.000000 -2.833061 0.000002
							}
						}
					}
				}
			}
		}
	}
	JOINT Junyuan_V1:Solving:LeftUpLeg
	{
		OFFSET 8.521003 0.000000 0.000000
		CHANNELS 6 Xposition Yposition Zposition Xrotation Yrotation Zrotation
		JOINT Junyuan_V1:Solving:LeftLeg
		{
			OFFSET 0.000000 41.622898 -0.000006
			CHANNELS 6 Xposition Yposition Zposition Xrotation Yrotation Zrotation
			JOINT Junyuan_V1:Solving:LeftFoot
			{
				OFFSET 0.000000 37.258389 -0.000006
				CHANNELS 6 Xposition Yposition Zposition Xrotation Yrotation Zrotation
				JOINT Junyuan_V1:Solving:LeftForeFoot
				{
					OFFSET 0.000000 3.234154 -0.000000
					CHANNELS 6 Xposition Yposition Zposition Xrotation Yrotation Zrotation
					JOINT Junyuan_V1:Solving:LeftToeBase
					{
						OFFSET 0.000000 0.000000 -12.665958
						CHANNELS 6 Xposition Yposition Zposition Xrotation Yrotation Zrotation
						JOINT Junyuan_V1:Solving:LeftToeBaseEnd
						{
							OFFSET 0.000000 0.000000 -4.326123
							CHANNELS 6 Xposition Yposition Zposition Xrotation Yrotation Zrotation
							End Site
							{
								OFFSET 0.000000 -4.326126 0.000000
							}
						}
					}
				}
			}
		}
	}
}
MOTION
Frames: 4
Frame Time: 0.041667
-13.554930 -7.215170 -88.287483 85.916936 155.078161 3.682015 0.000000 -8.943174 2.778121 8.918058 0.355143 -0.405829 -0.000001 -9.944809 1.753545 -1.571594 0.021613 -0.181249 0.000000 -10.059794 0.880119 -6.335697 -2.054970 -0.744673 -0.000001 -10.098223 -0.000001 -5.358283 -0.468706 -0.363790 -0.000002 -12.983458 -1.298345 6.803405 6.313389 2.471085 0.000002 -8.085074 -0.707354 -4.305864 18.708812 0.851217 0.000003 -7.992647 -1.409321 -1.426063 2.853145 -3.716189 -0.000001 -9.728043 0.000001 0.000000 0.000000 -0.000000 -0.000007 -9.273876 -6.154362 -0.000009 21.337876 23.502992 -19.110815 -0.000004 0.000004 -44.183227 -3.875400 -88.461140 -27.916363 0.000011 -0.000001 -275.627394 -107.597275 -275.901721 -21.757069 -0.000022 0.000028 17.728584 32.776831 -30.562866 -3.656470 2.766285 -2.718911 -0.000006 0.000002 0.000002 -9.750566 0.000000 0.062506 -0.000002 -0.000001 -0.000001 0.000001 -9.273872 -6.154362 -0.000005 -17.145858 -9.862526 19.110815 -0.000030 0.000009 -4.292975 22.111424 85.443884 27.916397 0.000008 0.000007 24.204937 16.872761 -7.433536 21.757080 0.000004 -0.000001 -0.401921 1.545510 14.579230 3.656455 2.766271 -2.718906 -0.000002 -0.000000 -0.000002 9.750569 -0.000009 0.062505 0.000000 0.000003 -0.000004 -8.521002 0.000019 0.000002 -3.588913 21.657265 0.550221 -0.000001 41.622929 -0.000005 -1.572939 0.000000 -0.000000 -0.000001 37.258377 -0.000004 10.229336 2.429049 6.039237 -0.000001 3.234147 0.000002 -0.000000 -0.000000 -0.000003 0.000001 0.000009 -12.665959 -1.402510 0.000000 -0.000000 -0.000001 -0.000000 -2.833060 -0.000001 -0.000000 -0.000002 8.521006 -0.000005 0.000000 -1.582028 -7.712896 -10.207796 0.000002 41.622921 -0.000001 -0.902071 0.000007 0.000001 0.000008 37.258400 -0.000001 7.809474 9.074010 9.721457 -0.000004 3.234146 -0.000004 -0.000001 0.000001 -0.000001 0.000007 -0.000010 -12.665960 5.140975 -0.000002 -0.000001 0.000003 -0.000007 -4.326127 0.000002 0.000000 -0.000001 
-13.545410 -7.211683 -88.287704 85.860457 154.875755 3.710435 -0.000002 -8.943198 2.778117 8.936905 0.358212 -0.417184 -0.000000 -9.944802 1.753540 -1.564781 0.025432 -0.178748 0.000001 -10.059814 0.880121 -6.323643 -1.946422 -0.741160 -0.000001 -10.098238 -0.000001 -5.349744 -0.439356 -0.361969 -0.000002 -12.983450 -1.298336 6.754696 6.347705 2.514857 -0.000004 -8.085081 -0.707351 -4.343703 18.752674 0.881734 0.000002 -7.992705 -1.409326 -1.464287 2.856003 -3.710759 -0.000003 -9.728104 0.000001 0.000000 0.000000 -0.000000 -0.000007 -9.273888 -6.154349 -0.000008 21.442185 23.654070 -19.110826 -0.000045 -0.000002 -42.980219 -4.389825 -88.739204 -27.916376 -0.000004 0.000019 -276.833277 -107.525332 -277.162520 -21.757086 -0.000014 -0.000019 16.476993 32.631779 -28.745189 -3.656463 2.766281 -2.718883 -0.000008 -0.000000 -0.000009 -9.750557 -0.000009 0.062515 -0.000007 0.000001 -0.000000 0.000001 -9.273884 -6.154350 -0.000007 -17.130572 -9.918703 19.110825 -0.000032 0.000005 -4.683971 20.670666 85.745881 27.916382 -0.000003 0.000010 24.963590 16.521087 -7.541148 21.757074 -0.000004 0.000003 -0.529105 1.996942 14.843196 3.656451 2.766275 -2.718907 -0.000001 -0.000007 0.000003 9.750563 -0.000001 0.062503 -0.000002 0.000001 -0.000002 -8.521004 -0.000019 -0.000004 -3.593551 21.763959 0.547180 0.000001 41.622910 -0.000006 -1.608025 -0.000000 0.000000 -0.000002 37.258400 -0.000008 10.240062 2.522501 6.044248 0.000001 3.234154 0.000000 -0.000002 0.000000 -0.000001 0.000002 -0.000002 -12.665960 -1.514485 -0.000000 -0.000001 -0.000002 -0.000015 -2.833065 0.000001 -0.000000 0.000001 8.521003 -0.000017 -0.000001 -1.649762 -7.585060 -10.212847 0.000005 41.622894 -0.000002 -0.928430 0.000002 -0.000001 -0.000004 37.258389 -0.000003 7.866046 9.162465 9.699431 -0.000008 3.234146 -0.000002 -0.000000 0.000000 -0.000001 0.000001 -0.000014 -12.665958 5.154987 0.000000 0.000001 0.000001 -0.000014 -4.326118 0.000004 0.000002 -0.000001 
-13.536805 -7.211950 -88.286247 85.814558 154.677352 3.733396 0.000000 -8.943197 2.778124 8.960220 0.362122 -0.415475 0.000000 -9.944829 1.753546 -1.558939 0.029634 -0.176628 0.000000 -10.059794 0.880121 -6.306160 -1.821956 -0.741519 -0.000002 -10.098243 0.000002 -5.322009 -0.416636 -0.374871 0.000004 -12.983401 -1.298325 6.686277 6.379728 2.553558 0.000001 -8.085075 -0.707359 -4.378604 18.768713 0.910112 -0.000003 -7.992705 -1.409329 -1.509462 2.850721 -3.690054 -0.000000 -9.728081 0.000002 -0.000000 0.000000 -0.000000 0.000003 -9.273857 -6.154336 -0.000013 21.299445 23.447327 -19.110817 -0.000013 0.000000 -41.574733 -5.002971 -88.545254 -27.916386 0.000002 -0.000009 -278.714612 -108.298544 -279.171087 -21.757103 -0.000019 -0.000011 15.612880 33.161958 -27.060965 -3.656466 2.766292 -2.718886 -0.000000 0.000007 -0.000003 -9.750573 -0.000005 0.062519 0.000003 0.000003 -0.000001 0.000005 -9.273853 -6.154338 -0.000009 -17.153540 -9.940467 19.110819 -0.000016 0.000002 -4.848887 20.194902 85.835814 27.916395 -0.000006 0.000003 24.785365 16.574098 -7.503689 21.757074 -0.000008 0.000001 -0.568678 2.142164 14.871094 3.656475 2.766285 -2.718902 -0.000000 -0.000002 0.000005 9.750572 -0.000008 0.062504 0.000001 -0.000002 -0.000000 -8.521000 -0.000003 0.000005 -3.588076 21.857830 0.544650 -0.000000 41.622875 -0.000006 -1.638550 0.000000 0.000000 0.000000 37.258366 -0.000005 10.227181 2.626430 6.043421 -0.000001 3.234146 -0.000002 -0.000001 0.000000 -0.000001 -0.000001 -0.000018 -12.665958 -1.448717 0.000000 0.000002 -0.000002 -0.000008 -2.833066 -0.000001 -0.000000 -0.000001 8.521000 0.000007 0.000004 -1.699114 -7.474880 -10.215803 -0.000001 41.622890 -0.000004 -0.969334 0.000006 0.000000 0.000001 37.258404 -0.000008 7.907952 9.253812 9.689025 -0.000002 3.234146 -0.000000 -0.000000 0.000000 -0.000000 0.000002 -0.000007 -12.665963 5.134782 -0.000003 -0.000000 -0.000004 -0.000008 -4.326127 0.000000 0.000002 -0.000001 
-13.523514 -7.214088 -88.284752 85.780257 154.493265 3.764568 0.000001 -8.943198 2.778121 8.987457 0.368978 -0.435004 0.000000 -9.944815 1.753542 -1.551038 0.033765 -0.175242 -0.000001 -10.059798 0.880120 -6.287310 -1.675213 -0.748021 -0.000001 -10.098243 0.000000 -5.290640 -0.390832 -0.394760 -0.000002 -12.983409 -1.298335 6.629379 6.420384 2.655530 -0.000003 -8.085098 -0.707351 -4.410829 18.729970 0.917316 -0.000003 -7.992703 -1.409320 -1.549191 2.845367 -3.682594 -0.000004 -9.728104 0.000005 0.000000 -0.000000 -0.000000 -0.000011 -9.273872 -6.154349 -0.000010 21.229230 23.355984 -19.110806 -0.000007 0.000000 -40.397652 -5.213371 -88.754599 -27.916391 0.000011 -0.000009 -280.098435 -106.677316 -280.532098 -21.757067 -0.000024 0.000009 15.028853 31.708702 -27.059012 -3.656469 2.766270 -2.718925 0.000004 -0.000005 -0.000007 -9.750579 -0.000008 0.062511 0.000002 -0.000006 -0.000008 -0.000002 -9.273872 -6.154351 -0.000007 -17.206097 -9.864140 19.110819 -0.000011 0.000005 -4.535143 21.445573 85.475788 27.916389 -0.000000 0.000012 22.851559 17.408668 -7.186098 21.757086 -0.000019 -0.000000 -0.444020 1.721847 14.462523 3.656482 2.766294 -2.718905 -0.000002 0.000002 0.000004 9.750593 0.000013 0.062505 -0.000003 0.000000 -0.000002 -8.521002 -0.000026 0.000002 -3.573003 21.942165 0.525818 0.000001 41.622910 -0.000005 -1.656908 0.000001 0.000000 0.000000 37.258381 -0.000005 10.226081 2.726600 6.028174 -0.000000 3.234147 0.000000 -0.000000 -0.000000 -0.000003 -0.000000 -0.000001 -12.665964 -1.336064 0.000000 -0.000002 -0.000001 -0.000008 -2.833070 0.000000 -0.000000 -0.000001 8.521002 -0.000020 0.000004 -1.739964 -7.402399 -10.235191 0.000004 41.622902 -0.000006 -1.016244 -0.000002 0.000002 0.000009 37.258408 -0.000003 7.946004 9.368603 9.693311 -0.000007 3.234146 -0.000002 0.000001 0.000000 -0.000000 0.000003 -0.000004 -12.665961 5.137637 -0.000002 0.000001 -0.000001 -0.000007 -4.326125 0.000003 0.000002 -0.000001 
